<?xml version="1.0" encoding="UTF-8" standalone="no"?>
<!-- Created with Inkscape (http://www.inkscape.org/) -->

<svg
   xmlns:dc="http://purl.org/dc/elements/1.1/"
   xmlns:cc="http://creativecommons.org/ns#"
   xmlns:rdf="http://www.w3.org/1999/02/22-rdf-syntax-ns#"
   xmlns:svg="http://www.w3.org/2000/svg"
   xmlns="http://www.w3.org/2000/svg"
   xmlns:sodipodi="http://sodipodi.sourceforge.net/DTD/sodipodi-0.dtd"
   xmlns:inkscape="http://www.inkscape.org/namespaces/inkscape"
   width="720"
   height="480"
   id="svg4432"
   version="1.1"
   inkscape:version="0.48.4 r9939"
   sodipodi:docname="新建文档 9">
  <defs
     id="defs4434" />
  <sodipodi:namedview
     id="base"
     pagecolor="#ffffff"
     bordercolor="#666666"
     borderopacity="1.0"
     inkscape:pageopacity="0.0"
     inkscape:pageshadow="2"
     inkscape:zoom="1.1388889"
     inkscape:cx="360"
     inkscape:cy="240"
     inkscape:document-units="px"
     inkscape:current-layer="g5061"
     showgrid="false"
     inkscape:window-width="1301"
     inkscape:window-height="744"
     inkscape:window-x="65"
     inkscape:window-y="24"
     inkscape:window-maximized="1" />
  <metadata
     id="metadata4437">
    <rdf:RDF>
      <cc:Work
         rdf:about="">
        <dc:format>image/svg+xml</dc:format>
        <dc:type
           rdf:resource="http://purl.org/dc/dcmitype/StillImage" />
        <dc:title></dc:title>
      </cc:Work>
    </rdf:RDF>
  </metadata>
  <g
     inkscape:label="Layer 1"
     inkscape:groupmode="layer"
     id="layer1"
     transform="translate(0,-572.36218)">
    <g
       id="g4994"
       transform="translate(-10.536585,0)">
      <path
         d="m 321.05436,218.25371 c 0,24.45702 -19.82634,44.28336 -44.28336,44.28336 -24.45703,0 -44.28336,-19.82634 -44.28336,-44.28336 0,-24.45703 19.82633,-44.28336 44.28336,-44.28336 24.45702,0 44.28336,19.82633 44.28336,44.28336 z"
         sodipodi:ry="44.28336"
         sodipodi:rx="44.28336"
         sodipodi:cy="218.25371"
         sodipodi:cx="276.771"
         id="path3800"
         style="fill:#00c800;fill-opacity:1;stroke:#000000;stroke-width:6;stroke-linecap:round;stroke-linejoin:round;stroke-miterlimit:4;stroke-opacity:1;stroke-dasharray:none"
         sodipodi:type="arc"
         transform="translate(-170.96612,535.39731)" />
      <path
         transform="translate(-44.759516,556.74822)"
         d="m 336.20349,195.32126 c 0,12.29722 -9.96886,22.26608 -22.26608,22.26608 -12.29722,0 -22.26609,-9.96886 -22.26609,-22.26608 0,-12.29722 9.96887,-22.26609 22.26609,-22.26609 12.29722,0 22.26608,9.96887 22.26608,22.26609 z"
         sodipodi:ry="22.266085"
         sodipodi:rx="22.266085"
         sodipodi:cy="195.32126"
         sodipodi:cx="313.93741"
         id="path3853"
         style="fill:#ff00ff;fill-opacity:0.40784314;stroke:none"
         sodipodi:type="arc" />
      <path
         inkscape:connector-curvature="0"
         id="path4378"
         d="m 172.71354,754.31547 46.53658,0"
         style="fill:none;stroke:#000000;stroke-width:6;stroke-linecap:round;stroke-linejoin:round;stroke-miterlimit:4;stroke-opacity:1;stroke-dasharray:none" />
      <path
         inkscape:connector-curvature="0"
         id="path4380"
         d="m 197.2989,730.60815 0,43.90244"
         style="fill:none;stroke:#000000;stroke-width:6;stroke-linecap:round;stroke-linejoin:round;stroke-miterlimit:4;stroke-opacity:1;stroke-dasharray:none" />
    </g>
    <g
       id="g5010"
       transform="translate(-127.31707,0)">
      <path
         inkscape:connector-curvature="0"
         id="path4382"
         d="m 445.78671,747.29108 38.63414,0"
         style="fill:none;stroke:#000000;stroke-width:6;stroke-linecap:round;stroke-linejoin:round;stroke-miterlimit:4;stroke-opacity:1;stroke-dasharray:none" />
      <path
         style="fill:none;stroke:#000000;stroke-width:6;stroke-linecap:round;stroke-linejoin:round;stroke-miterlimit:4;stroke-opacity:1;stroke-dasharray:none"
         d="m 445.78671,760.46181 38.63414,0"
         id="path4386"
         inkscape:connector-curvature="0" />
    </g>
    <g
       transform="translate(325.7561,0)"
       id="g5035">
      <path
         transform="translate(-170.96612,535.39731)"
         sodipodi:type="arc"
         style="fill:#00c800;fill-opacity:1;stroke:#000000;stroke-width:6;stroke-linecap:round;stroke-linejoin:round;stroke-miterlimit:4;stroke-opacity:1;stroke-dasharray:none"
         id="path5037"
         sodipodi:cx="276.771"
         sodipodi:cy="218.25371"
         sodipodi:rx="44.28336"
         sodipodi:ry="44.28336"
         d="m 321.05436,218.25371 c 0,24.45702 -19.82634,44.28336 -44.28336,44.28336 -24.45703,0 -44.28336,-19.82634 -44.28336,-44.28336 0,-24.45703 19.82633,-44.28336 44.28336,-44.28336 24.45702,0 44.28336,19.82633 44.28336,44.28336 z" />
      <path
         sodipodi:type="arc"
         style="fill:#ff00ff;fill-opacity:0.40784314;stroke:none"
         id="path5039"
         sodipodi:cx="313.93741"
         sodipodi:cy="195.32126"
         sodipodi:rx="55.631939"
         sodipodi:ry="55.631939"
         d="m 369.56935,195.32126 a 55.631939,55.631939 0 1 1 -111.26388,0 55.631939,55.631939 0 1 1 111.26388,0 z"
         transform="translate(-10.515614,556.74822)" />
      <path
         style="fill:none;stroke:#000000;stroke-width:6;stroke-linecap:round;stroke-linejoin:round;stroke-miterlimit:4;stroke-opacity:1;stroke-dasharray:none"
         d="m 172.71354,754.31547 46.53658,0"
         id="path5041"
         inkscape:connector-curvature="0" />
      <path
         style="fill:none;stroke:#000000;stroke-width:6;stroke-linecap:round;stroke-linejoin:round;stroke-miterlimit:4;stroke-opacity:1;stroke-dasharray:none"
         d="m 197.2989,730.60815 0,43.90244"
         id="path5043"
         inkscape:connector-curvature="0" />
    </g>
    <g
       transform="translate(-127.31707,141.36585)"
       id="g5055">
      <path
         style="fill:none;stroke:#000000;stroke-width:6;stroke-linecap:round;stroke-linejoin:round;stroke-miterlimit:4;stroke-opacity:1;stroke-dasharray:none"
         d="m 445.78671,747.29108 38.63414,0"
         id="path5057"
         inkscape:connector-curvature="0" />
      <path
         inkscape:connector-curvature="0"
         id="path5059"
         d="m 445.78671,760.46181 38.63414,0"
         style="fill:none;stroke:#000000;stroke-width:6;stroke-linecap:round;stroke-linejoin:round;stroke-miterlimit:4;stroke-opacity:1;stroke-dasharray:none" />
    </g>
    <g
       id="g5061"
       transform="translate(325.7561,141.36585)">
      <path
         d="m 321.05436,218.25371 c 0,24.45702 -19.82634,44.28336 -44.28336,44.28336 -24.45703,0 -44.28336,-19.82634 -44.28336,-44.28336 0,-24.45703 19.82633,-44.28336 44.28336,-44.28336 24.45702,0 44.28336,19.82633 44.28336,44.28336 z"
         sodipodi:ry="44.28336"
         sodipodi:rx="44.28336"
         sodipodi:cy="218.25371"
         sodipodi:cx="276.771"
         id="path5063"
         style="fill:#00c800;fill-opacity:1;stroke:#000000;stroke-width:6;stroke-linecap:round;stroke-linejoin:round;stroke-miterlimit:4;stroke-opacity:1;stroke-dasharray:none"
         sodipodi:type="arc"
         transform="translate(-170.96612,535.39731)" />
      <path
         transform="translate(-10.515614,556.74822)"
         d="m 369.56935,195.32126 c 0,30.72467 -24.90727,55.63194 -55.63194,55.63194 -30.72467,0 -55.63194,-24.90727 -55.63194,-55.63194 0,-30.72467 24.90727,-55.63194 55.63194,-55.63194 30.72467,0 55.63194,24.90727 55.63194,55.63194 z"
         sodipodi:ry="55.631939"
         sodipodi:rx="55.631939"
         sodipodi:cy="195.32126"
         sodipodi:cx="313.93741"
         id="path5065"
         style="fill:#ff00ff;fill-opacity:0.40784314;stroke:none"
         sodipodi:type="arc" />
      <path
         inkscape:connector-curvature="0"
         id="path5067"
         d="m 172.71354,754.31547 46.53658,0"
         style="fill:none;stroke:#000000;stroke-width:6;stroke-linecap:round;stroke-linejoin:round;stroke-miterlimit:4;stroke-opacity:1;stroke-dasharray:none" />
      <path
         inkscape:connector-curvature="0"
         id="path5069"
         d="m 197.2989,730.60815 0,43.90244"
         style="fill:none;stroke:#000000;stroke-width:6;stroke-linecap:round;stroke-linejoin:round;stroke-miterlimit:4;stroke-opacity:1;stroke-dasharray:none" />
      <path
         style="fill:none;stroke:#ffffff;stroke-width:6;stroke-linecap:round;stroke-linejoin:round;stroke-miterlimit:4;stroke-opacity:1;stroke-dasharray:none"
         d="m 264.29268,768.75243 c 0,0 8.48971,-23.25127 18.83301,-26.1011 16.11702,-4.44062 30.13934,25.07926 46.03496,19.90175 7.7351,-2.51947 12.40032,-21.02016 12.40032,-21.02016"
         id="path5071"
         inkscape:connector-curvature="0"
         sodipodi:nodetypes="caac" />
    </g>
  </g>
</svg>
