<?xml version="1.0" encoding="UTF-8" standalone="no"?>
<!-- Created with Inkscape (http://www.inkscape.org/) -->

<svg
   xmlns:dc="http://purl.org/dc/elements/1.1/"
   xmlns:cc="http://creativecommons.org/ns#"
   xmlns:rdf="http://www.w3.org/1999/02/22-rdf-syntax-ns#"
   xmlns:svg="http://www.w3.org/2000/svg"
   xmlns="http://www.w3.org/2000/svg"
   xmlns:xlink="http://www.w3.org/1999/xlink"
   xmlns:sodipodi="http://sodipodi.sourceforge.net/DTD/sodipodi-0.dtd"
   xmlns:inkscape="http://www.inkscape.org/namespaces/inkscape"
   width="720"
   height="480"
   id="svg2"
   version="1.1"
   inkscape:version="0.48.4 r9939"
   sodipodi:docname="新建文档 1">
  <defs
     id="defs4" />
  <sodipodi:namedview
     id="base"
     pagecolor="#ffffff"
     bordercolor="#666666"
     borderopacity="1.0"
     inkscape:pageopacity="0.0"
     inkscape:pageshadow="2"
     inkscape:zoom="1.2645833"
     inkscape:cx="360"
     inkscape:cy="240"
     inkscape:document-units="px"
     inkscape:current-layer="layer1"
     showgrid="false"
     inkscape:window-width="1301"
     inkscape:window-height="744"
     inkscape:window-x="65"
     inkscape:window-y="24"
     inkscape:window-maximized="1" />
  <metadata
     id="metadata7">
    <rdf:RDF>
      <cc:Work
         rdf:about="">
        <dc:format>image/svg+xml</dc:format>
        <dc:type
           rdf:resource="http://purl.org/dc/dcmitype/StillImage" />
        <dc:title></dc:title>
      </cc:Work>
    </rdf:RDF>
  </metadata>
  <g
     inkscape:label="Layer 1"
     inkscape:groupmode="layer"
     id="layer1"
     transform="translate(0,-572.36218)">
    <g
       id="g3056"
       transform="translate(-128.10544,155.78254)">
      <path
         transform="translate(-71.080266,562.75521)"
         d="m 369.56935,195.32126 c 0,30.72467 -24.90727,55.63194 -55.63194,55.63194 -30.72467,0 -55.63194,-24.90727 -55.63194,-55.63194 0,-30.72467 24.90727,-55.63194 55.63194,-55.63194 30.72467,0 55.63194,24.90727 55.63194,55.63194 z"
         sodipodi:ry="55.631939"
         sodipodi:rx="55.631939"
         sodipodi:cy="195.32126"
         sodipodi:cx="313.93741"
         id="path5065-4"
         style="fill:#ff00ff;fill-opacity:0.40784314;stroke:none"
         sodipodi:type="arc" />
      <path
         style="fill:none;stroke:#ffffff;stroke-width:6;stroke-linecap:round;stroke-linejoin:round;stroke-miterlimit:4;stroke-opacity:1;stroke-dasharray:none"
         d="m 203.72811,774.75942 c 0,0 8.48971,-23.25127 18.83301,-26.1011 16.11702,-4.44062 30.13934,25.07926 46.03496,19.90175 7.7351,-2.51947 12.40032,-21.02016 12.40032,-21.02016"
         id="path5071-1"
         inkscape:connector-curvature="0"
         sodipodi:nodetypes="caac" />
    </g>
    <path
       transform="translate(-199.18547,482.2139)"
       d="m 369.56935,195.32126 a 55.631939,55.631939 0 1 1 -111.26388,0 55.631939,55.631939 0 1 1 111.26388,0 z"
       sodipodi:ry="55.631939"
       sodipodi:rx="55.631939"
       sodipodi:cy="195.32126"
       sodipodi:cx="313.93741"
       id="path5065-4-8"
       style="fill:#ff00ff;fill-opacity:0.40784314;stroke:none"
       sodipodi:type="arc" />
    <g
       id="g3948">
      <g
         id="g3852">
        <path
           sodipodi:nodetypes="cc"
           style="fill:none;stroke:#000000;stroke-width:6;stroke-linecap:round;stroke-linejoin:round;stroke-miterlimit:4;stroke-opacity:1;stroke-dasharray:none"
           d="m 240.39539,597.0855 12.65239,11.86161"
           id="path3080"
           inkscape:connector-curvature="0" />
      </g>
      <g
         id="g3942">
        <path
           sodipodi:nodetypes="ccc"
           inkscape:connector-curvature="0"
           id="path3078"
           d="m 241.18616,200.85667 0,-175.551892 -11.07084,11.07084"
           style="fill:none;stroke:#000000;stroke-width:6;stroke-linecap:round;stroke-linejoin:round;stroke-miterlimit:4;stroke-opacity:1;stroke-dasharray:none"
           transform="translate(0,572.36218)" />
        <g
           id="g3862"
           transform="matrix(0,1,-1,0,1095.9594,521.85728)">
          <path
             style="fill:none;stroke:#000000;stroke-width:6;stroke-linecap:round;stroke-linejoin:round;stroke-miterlimit:4;stroke-opacity:1;stroke-dasharray:none"
             d="m 241.18616,298.91268 0,-273.607902 -11.07084,11.07084"
             id="path3864"
             inkscape:connector-curvature="0"
             transform="translate(0,572.36218)"
             sodipodi:nodetypes="ccc" />
          <path
             sodipodi:nodetypes="cc"
             style="fill:none;stroke:#000000;stroke-width:6;stroke-linecap:round;stroke-linejoin:round;stroke-miterlimit:4;stroke-opacity:1;stroke-dasharray:none"
             d="m 240.39539,597.0855 12.65239,11.86161"
             id="path3866"
             inkscape:connector-curvature="0" />
        </g>
      </g>
      <g
         id="g3937">
        <path
           sodipodi:type="arc"
           style="fill:#ffc868;fill-opacity:1;stroke:#000000;stroke-width:3;stroke-linecap:round;stroke-linejoin:round;stroke-miterlimit:4;stroke-opacity:1;stroke-dasharray:none"
           id="path3868"
           sodipodi:cx="534.56342"
           sodipodi:cy="207.97365"
           sodipodi:rx="20.560131"
           sodipodi:ry="20.560131"
           d="m 555.12355,207.97365 c 0,11.35504 -9.20509,20.56013 -20.56013,20.56013 -11.35505,0 -20.56014,-9.20509 -20.56014,-20.56013 0,-11.35505 9.20509,-20.56013 20.56014,-20.56013 11.35504,0 20.56013,9.20508 20.56013,20.56013 z"
           transform="translate(0,572.36218)" />
        <path
           style="fill:none;stroke:#000000;stroke-width:3;stroke-linecap:round;stroke-linejoin:round;stroke-opacity:1;stroke-miterlimit:4;stroke-dasharray:none"
           d="m 534.56343,193.7397 0,15.02472 -9.48929,0"
           id="path3872"
           inkscape:connector-curvature="0"
           transform="translate(0,572.36218)" />
      </g>
      <g
         id="g3890">
        <path
           style="fill:#009400;stroke:#000000;stroke-width:3;stroke-linecap:round;stroke-linejoin:round;stroke-opacity:1;stroke-miterlimit:4;stroke-dasharray:none;fill-opacity:1"
           d="m 177.88047,767.07046 c 0,0 1.85496,-14.28011 15.36664,-14.28011 13.20124,0 15.36664,14.28011 15.36664,14.28011 0,0 -7.89767,1.86262 -15.36664,1.86262 -7.77941,0 -15.36664,-1.86262 -15.36664,-1.86262 z"
           id="path3874"
           inkscape:connector-curvature="0"
           sodipodi:nodetypes="cscsc" />
        <path
           style="fill:none;stroke:#000000;stroke-width:3;stroke-linecap:round;stroke-linejoin:round;stroke-opacity:1;stroke-miterlimit:4;stroke-dasharray:none"
           d="m 180.05353,760.86173 c 0,0 -7.73447,-6.20224 -13.03836,1.39696 -2.579,3.69509 9.93399,4.50134 9.93399,4.50134"
           id="path3876"
           inkscape:connector-curvature="0"
           sodipodi:nodetypes="csc" />
        <path
           sodipodi:type="arc"
           style="fill:#ffc868;fill-opacity:1;stroke:#000000;stroke-width:3;stroke-linecap:round;stroke-linejoin:round;stroke-miterlimit:4;stroke-opacity:1;stroke-dasharray:none"
           id="path3878"
           sodipodi:cx="172.2926"
           sodipodi:cy="189.12042"
           sodipodi:rx="0.62087423"
           sodipodi:ry="0.62087423"
           d="m 172.91348,189.12042 c 0,0.3429 -0.27798,0.62088 -0.62088,0.62088 -0.3429,0 -0.62087,-0.27798 -0.62087,-0.62088 0,-0.3429 0.27797,-0.62087 0.62087,-0.62087 0.3429,0 0.62088,0.27797 0.62088,0.62087 z"
           transform="translate(0,572.98305)" />
        <path
           style="fill:none;stroke:#000000;stroke-width:3;stroke-linecap:round;stroke-linejoin:round;stroke-opacity:1;stroke-miterlimit:4;stroke-dasharray:none"
           d="m 179.12222,195.01872 c 0,0 -3.88006,5.64711 -0.31044,6.51918 3.65909,0.89392 6.20875,-4.65656 6.20875,-4.65656"
           id="path3880"
           inkscape:connector-curvature="0"
           transform="translate(0,572.36218)"
           sodipodi:nodetypes="csc" />
        <path
           sodipodi:nodetypes="csc"
           inkscape:connector-curvature="0"
           id="path3882"
           d="m 205.24129,768.00177 c 0,0 3.88006,5.64711 0.31044,6.51918 -3.65909,0.89392 -6.20875,-4.65656 -6.20875,-4.65656"
           style="fill:none;stroke:#000000;stroke-width:3;stroke-linecap:round;stroke-linejoin:round;stroke-miterlimit:4;stroke-opacity:1;stroke-dasharray:none" />
      </g>
      <g
         id="g3931">
        <path
           sodipodi:type="arc"
           style="color:#000000;fill:#808080;fill-opacity:1;fill-rule:nonzero;stroke:none;stroke-width:3;marker:none;visibility:visible;display:inline;overflow:visible;enable-background:accumulate"
           id="path3909"
           sodipodi:cx="215.01219"
           sodipodi:cy="36.036587"
           sodipodi:rx="2.7439024"
           sodipodi:ry="2.7439024"
           d="m 217.75609,36.036587 c 0,1.515415 -1.22848,2.743902 -2.7439,2.743902 -1.51541,0 -2.7439,-1.228487 -2.7439,-2.743902 0,-1.515416 1.22849,-2.743903 2.7439,-2.743903 1.51542,0 2.7439,1.228487 2.7439,2.743903 z"
           transform="translate(0,572.36218)" />
        <path
           sodipodi:type="arc"
           style="color:#000000;fill:#808080;fill-opacity:1;fill-rule:nonzero;stroke:none;stroke-width:3;marker:none;visibility:visible;display:inline;overflow:visible;enable-background:accumulate"
           id="path3911"
           sodipodi:cx="218.7439"
           sodipodi:cy="34.5"
           sodipodi:rx="4.0609756"
           sodipodi:ry="4.0609756"
           d="m 222.80487,34.5 c 0,2.242815 -1.81816,4.060976 -4.06097,4.060976 -2.24282,0 -4.06098,-1.818161 -4.06098,-4.060976 0,-2.242815 1.81816,-4.060976 4.06098,-4.060976 2.24281,0 4.06097,1.818161 4.06097,4.060976 z"
           transform="translate(0,572.36218)" />
        <path
           sodipodi:type="arc"
           style="color:#000000;fill:#808080;fill-opacity:1;fill-rule:nonzero;stroke:none;stroke-width:3;marker:none;visibility:visible;display:inline;overflow:visible;enable-background:accumulate"
           id="path3913"
           sodipodi:cx="223.2439"
           sodipodi:cy="37.2439"
           sodipodi:rx="3.9512196"
           sodipodi:ry="3.9512196"
           d="m 227.19512,37.2439 c 0,2.182199 -1.76903,3.95122 -3.95122,3.95122 -2.1822,0 -3.95122,-1.769021 -3.95122,-3.95122 0,-2.182198 1.76902,-3.951219 3.95122,-3.951219 2.18219,0 3.95122,1.769021 3.95122,3.951219 z"
           transform="translate(0,572.36218)" />
        <path
           sodipodi:type="arc"
           style="color:#000000;fill:#808080;fill-opacity:1;fill-rule:nonzero;stroke:none;stroke-width:3;marker:none;visibility:visible;display:inline;overflow:visible;enable-background:accumulate"
           id="path3915"
           sodipodi:cx="230.59756"
           sodipodi:cy="36.914635"
           sodipodi:rx="4.9390244"
           sodipodi:ry="4.9390244"
           d="m 235.53659,36.914635 c 0,2.727748 -2.21128,4.939024 -4.93903,4.939024 -2.72774,0 -4.93902,-2.211276 -4.93902,-4.939024 0,-2.727748 2.21128,-4.939025 4.93902,-4.939025 2.72775,0 4.93903,2.211277 4.93903,4.939025 z"
           transform="translate(0,572.36218)" />
      </g>
      <use
         height="480"
         width="720"
         transform="translate(0,-157.17073)"
         id="use3929"
         xlink:href="#g3890"
         y="0"
         x="0" />
    </g>
    <use
       x="0"
       y="0"
       xlink:href="#g3948"
       id="use3972"
       transform="translate(0,219.5122)"
       width="720"
       height="480" />
    <path
       style="fill:none;stroke:#000000;stroke-width:6;stroke-linecap:round;stroke-linejoin:round;stroke-opacity:1;stroke-miterlimit:4;stroke-dasharray:none"
       d="m 248.92683,109.46341 210.73171,0"
       id="path3974"
       inkscape:connector-curvature="0"
       transform="translate(0,572.36218)" />
    <path
       inkscape:connector-curvature="0"
       id="path3976"
       d="m 252.8807,914.31324 c 0,0 14.22414,-21.91333 25.47185,-22.14168 15.79967,-0.32076 21.21028,29.60958 37.0132,29.62459 15.24374,0.0145 20.51704,-28.20278 35.75772,-28.50843 15.78583,-0.31658 22.4032,28.22431 38.19088,28.01948 14.50651,-0.1882 19.92227,-27.37066 34.41196,-26.64743 11.04162,0.55113 24.07062,22.81657 24.07062,22.81657"
       style="fill:none;stroke:#000000;stroke-width:6;stroke-linecap:round;stroke-linejoin:round;stroke-miterlimit:4;stroke-opacity:1;stroke-dasharray:none"
       sodipodi:nodetypes="caaaaac" />
  </g>
</svg>
