<?xml version="1.0" encoding="UTF-8" standalone="no"?>
<!-- Created with Inkscape (http://www.inkscape.org/) -->

<svg
   xmlns:dc="http://purl.org/dc/elements/1.1/"
   xmlns:cc="http://creativecommons.org/ns#"
   xmlns:rdf="http://www.w3.org/1999/02/22-rdf-syntax-ns#"
   xmlns:svg="http://www.w3.org/2000/svg"
   xmlns="http://www.w3.org/2000/svg"
   xmlns:sodipodi="http://sodipodi.sourceforge.net/DTD/sodipodi-0.dtd"
   xmlns:inkscape="http://www.inkscape.org/namespaces/inkscape"
   width="720"
   height="480"
   id="svg3827"
   version="1.1"
   inkscape:version="0.48.4 r9939"
   sodipodi:docname="新建文档 4">
  <defs
     id="defs3829" />
  <sodipodi:namedview
     id="base"
     pagecolor="#ffffff"
     bordercolor="#666666"
     borderopacity="1.0"
     inkscape:pageopacity="0.0"
     inkscape:pageshadow="2"
     inkscape:zoom="1.1388889"
     inkscape:cx="360"
     inkscape:cy="240"
     inkscape:current-layer="layer1"
     showgrid="true"
     inkscape:grid-bbox="true"
     inkscape:document-units="px"
     inkscape:window-width="1301"
     inkscape:window-height="744"
     inkscape:window-x="65"
     inkscape:window-y="24"
     inkscape:window-maximized="1" />
  <metadata
     id="metadata3832">
    <rdf:RDF>
      <cc:Work
         rdf:about="">
        <dc:format>image/svg+xml</dc:format>
        <dc:type
           rdf:resource="http://purl.org/dc/dcmitype/StillImage" />
        <dc:title></dc:title>
      </cc:Work>
    </rdf:RDF>
  </metadata>
  <g
     id="layer1"
     inkscape:label="Layer 1"
     inkscape:groupmode="layer"
     transform="translate(0,448)">
    <g
       id="g4388">
      <path
         d="m 321.05436,218.25371 c 0,24.45702 -19.82634,44.28336 -44.28336,44.28336 -24.45703,0 -44.28336,-19.82634 -44.28336,-44.28336 0,-24.45703 19.82633,-44.28336 44.28336,-44.28336 24.45702,0 44.28336,19.82633 44.28336,44.28336 z"
         sodipodi:ry="44.28336"
         sodipodi:rx="44.28336"
         sodipodi:cy="218.25371"
         sodipodi:cx="276.771"
         id="path3800"
         style="fill:#00c800;stroke:#000000;stroke-width:6;stroke-linecap:round;stroke-linejoin:round;stroke-miterlimit:4;stroke-opacity:1;stroke-dasharray:none;fill-opacity:1"
         sodipodi:type="arc"
         transform="translate(-147.87478,-522.33279)" />
      <path
         transform="translate(29.258649,-500.98188)"
         d="m 390.64252,195.32126 c 0,42.36306 -34.34205,76.70511 -76.70511,76.70511 -42.36306,0 -76.70511,-34.34205 -76.70511,-76.70511 0,-42.36306 34.34205,-76.70511 76.70511,-76.70511 42.36306,0 76.70511,34.34205 76.70511,76.70511 z"
         sodipodi:ry="76.705109"
         sodipodi:rx="76.705109"
         sodipodi:cy="195.32126"
         sodipodi:cx="313.93741"
         id="path3853"
         style="fill:#ff00ff;fill-opacity:0.40784314;stroke:none"
         sodipodi:type="arc" />
      <path
         transform="translate(334.174,-522.33279)"
         sodipodi:type="arc"
         style="fill:#ffc868;fill-opacity:1;stroke:#000000;stroke-width:6;stroke-linecap:round;stroke-linejoin:round;stroke-miterlimit:4;stroke-opacity:1;stroke-dasharray:none"
         id="path4376"
         sodipodi:cx="276.771"
         sodipodi:cy="218.25371"
         sodipodi:rx="44.28336"
         sodipodi:ry="44.28336"
         d="m 321.05436,218.25371 c 0,24.45702 -19.82634,44.28336 -44.28336,44.28336 -24.45703,0 -44.28336,-19.82634 -44.28336,-44.28336 0,-24.45703 19.82633,-44.28336 44.28336,-44.28336 24.45702,0 44.28336,19.82633 44.28336,44.28336 z" />
      <path
         transform="translate(0,-448)"
         inkscape:connector-curvature="0"
         id="path4378"
         d="m 195.80488,144.58537 46.53658,0"
         style="fill:none;stroke:#000000;stroke-width:6;stroke-linecap:round;stroke-linejoin:round;stroke-opacity:1;stroke-miterlimit:4;stroke-dasharray:none" />
      <path
         transform="translate(0,-448)"
         inkscape:connector-curvature="0"
         id="path4380"
         d="m 220.39024,120.87805 0,43.90244"
         style="fill:none;stroke:#000000;stroke-width:6;stroke-linecap:round;stroke-linejoin:round;stroke-opacity:1;stroke-miterlimit:4;stroke-dasharray:none" />
      <path
         inkscape:connector-curvature="0"
         id="path4382"
         d="m 468.87805,-310.43902 38.63414,0"
         style="fill:none;stroke:#000000;stroke-width:6;stroke-linecap:round;stroke-linejoin:round;stroke-opacity:1;stroke-miterlimit:4;stroke-dasharray:none" />
      <path
         style="fill:none;stroke:#000000;stroke-width:6;stroke-linecap:round;stroke-linejoin:round;stroke-opacity:1;stroke-miterlimit:4;stroke-dasharray:none"
         d="m 468.87805,-297.26829 38.63414,0"
         id="path4386"
         inkscape:connector-curvature="0" />
    </g>
    <g
       id="g4397"
       transform="translate(0,162.43902)">
      <path
         transform="translate(-147.87478,-522.33279)"
         sodipodi:type="arc"
         style="fill:#00ceff;fill-opacity:1;stroke:#000000;stroke-width:6;stroke-linecap:round;stroke-linejoin:round;stroke-miterlimit:4;stroke-opacity:1;stroke-dasharray:none"
         id="path4399"
         sodipodi:cx="276.771"
         sodipodi:cy="218.25371"
         sodipodi:rx="44.28336"
         sodipodi:ry="44.28336"
         d="m 321.05436,218.25371 c 0,24.45702 -19.82634,44.28336 -44.28336,44.28336 -24.45703,0 -44.28336,-19.82634 -44.28336,-44.28336 0,-24.45703 19.82633,-44.28336 44.28336,-44.28336 24.45702,0 44.28336,19.82633 44.28336,44.28336 z" />
      <path
         sodipodi:type="arc"
         style="fill:#ff0000;fill-opacity:1;stroke:none"
         id="path4401"
         sodipodi:cx="313.93741"
         sodipodi:cy="195.32126"
         sodipodi:rx="76.705109"
         sodipodi:ry="76.705109"
         d="m 390.64252,195.32126 c 0,42.36306 -34.34205,76.70511 -76.70511,76.70511 -42.36306,0 -76.70511,-34.34205 -76.70511,-76.70511 0,-42.36306 34.34205,-76.70511 76.70511,-76.70511 42.36306,0 76.70511,34.34205 76.70511,76.70511 z"
         transform="translate(29.258649,-500.98188)" />
      <path
         d="m 321.05436,218.25371 c 0,24.45702 -19.82634,44.28336 -44.28336,44.28336 -24.45703,0 -44.28336,-19.82634 -44.28336,-44.28336 0,-24.45703 19.82633,-44.28336 44.28336,-44.28336 24.45702,0 44.28336,19.82633 44.28336,44.28336 z"
         sodipodi:ry="44.28336"
         sodipodi:rx="44.28336"
         sodipodi:cy="218.25371"
         sodipodi:cx="276.771"
         id="path4403"
         style="fill:#ffceff;fill-opacity:1;stroke:#000000;stroke-width:6;stroke-linecap:round;stroke-linejoin:round;stroke-miterlimit:4;stroke-opacity:1;stroke-dasharray:none"
         sodipodi:type="arc"
         transform="translate(334.174,-522.33279)" />
      <path
         style="fill:none;stroke:#000000;stroke-width:6;stroke-linecap:round;stroke-linejoin:round;stroke-miterlimit:4;stroke-opacity:1;stroke-dasharray:none"
         d="m 195.80488,144.58537 46.53658,0"
         id="path4405"
         inkscape:connector-curvature="0"
         transform="translate(0,-448)" />
      <path
         style="fill:none;stroke:#000000;stroke-width:6;stroke-linecap:round;stroke-linejoin:round;stroke-miterlimit:4;stroke-opacity:1;stroke-dasharray:none"
         d="m 220.39024,120.87805 0,43.90244"
         id="path4407"
         inkscape:connector-curvature="0"
         transform="translate(0,-448)" />
      <path
         style="fill:none;stroke:#000000;stroke-width:6;stroke-linecap:round;stroke-linejoin:round;stroke-miterlimit:4;stroke-opacity:1;stroke-dasharray:none"
         d="m 468.87805,-310.43902 38.63414,0"
         id="path4409"
         inkscape:connector-curvature="0" />
      <path
         inkscape:connector-curvature="0"
         id="path4411"
         d="m 468.87805,-297.26829 38.63414,0"
         style="fill:none;stroke:#000000;stroke-width:6;stroke-linecap:round;stroke-linejoin:round;stroke-miterlimit:4;stroke-opacity:1;stroke-dasharray:none" />
    </g>
  </g>
</svg>
